<?xml version="1.0" standalone="no"?>
<!DOCTYPE svg PUBLIC "-//W3C//DTD SVG 20010904//EN"
 "http://www.w3.org/TR/2001/REC-SVG-20010904/DTD/svg10.dtd">
<svg version="1.0" xmlns="http://www.w3.org/2000/svg"
 width="320.000000pt" height="215.000000pt" viewBox="0 0 320.000000 215.000000"
 preserveAspectRatio="xMidYMid meet">

<g transform="translate(0.000000,215.000000) scale(0.100000,-0.100000)"
fill="#000000" stroke="none">
<path d="M439 1362 c-121 -77 -168 -193 -120 -297 20 -44 68 -105 82 -105 5 0
9 78 9 179 0 195 0 193 60 206 35 8 53 22 44 37 -9 14 -29 9 -75 -20z"/>
<path d="M1687 1339 c-48 -11 -97 -36 -97 -50 0 -5 9 -28 21 -50 15 -31 24
-39 37 -33 90 38 145 43 191 19 29 -15 41 -33 41 -65 0 -16 -12 -18 -107 -21
-90 -4 -114 -8 -144 -27 -85 -52 -81 -183 8 -235 65 -38 183 -31 231 13 l22
21 0 -26 c0 -26 1 -26 68 -23 l67 3 0 170 c-1 155 -3 174 -23 212 -25 48 -61
76 -117 92 -47 13 -144 13 -198 0z m196 -314 c-3 -44 -44 -75 -99 -75 -72 0
-106 48 -64 90 18 18 31 20 93 18 l72 -3 -2 -30z"/>
<path d="M2335 1338 c-16 -6 -39 -17 -50 -24 -27 -19 -38 -17 -32 6 5 19 0 20
-64 20 l-69 0 0 -240 0 -240 69 0 69 0 4 148 c2 120 6 152 21 173 47 70 158
64 184 -11 7 -20 12 -94 12 -172 l1 -138 70 0 70 0 0 153 c0 180 -12 236 -63
285 -18 18 -49 37 -68 42 -43 13 -115 12 -154 -2z"/>
<path d="M1010 1273 c16 -38 62 -147 103 -243 70 -163 74 -176 61 -201 -21
-41 -79 -53 -121 -24 -24 16 -29 12 -57 -42 -22 -45 -21 -49 24 -67 94 -38
207 -10 255 62 19 28 191 421 246 560 8 21 7 22 -59 22 l-68 0 -64 -155 c-35
-85 -66 -155 -70 -155 -4 0 -35 70 -70 155 l-64 155 -73 0 -72 0 29 -67z"/>
<path d="M650 888 c-14 -5 -56 -7 -94 -4 -63 5 -72 3 -123 -26 l-54 -31 -32
29 -31 29 25 -35 c30 -41 104 -100 125 -100 8 0 14 6 14 14 0 8 16 16 40 20
56 9 80 23 124 72 21 24 37 44 35 43 -2 0 -15 -5 -29 -11z"/>
</g>
</svg>
